HIERARCHY
ROOT Hips
{
	OFFSET -0.001795 -0.223333 0.028219
	CHANNELS 6 Xposition Yposition Zposition Zrotation Yrotation Xrotation 
	JOINT LeftUpLeg
	{
		OFFSET 0.069520 -0.091406 -0.006815
		CHANNELS 3 Zrotation Yrotation Xrotation
		JOINT LeftLeg
		{
			OFFSET 0.034277 -0.375199 -0.004496
			CHANNELS 3 Zrotation Yrotation Xrotation
			JOINT LeftFoot
			{
				OFFSET -0.013596 -0.397961 -0.043693
				CHANNELS 3 Zrotation Yrotation Xrotation
				JOINT LeftToe
				{
					OFFSET 0.026358 -0.055791 0.119288
					CHANNELS 3 Zrotation Yrotation Xrotation
					End Site
					{
						OFFSET 0.000000 0.000000 0.000000
					}
				}
			}
		}
	}
	JOINT RightUpLeg
	{
		OFFSET -0.067670 -0.090522 -0.004320
		CHANNELS 3 Zrotation Yrotation Xrotation
		JOINT RightLeg
		{
			OFFSET -0.038290 -0.382569 -0.008850
			CHANNELS 3 Zrotation Yrotation Xrotation
			JOINT RightFoot
			{
				OFFSET 0.015774 -0.398415 -0.042312
				CHANNELS 3 Zrotation Yrotation Xrotation
				JOINT RightToe
				{
					OFFSET -0.025372 -0.048144 0.123348
					CHANNELS 3 Zrotation Yrotation Xrotation
					End Site
					{
						OFFSET 0.000000 0.000000 0.000000
					}
				}
			}
		}
	}
	JOINT Spine
	{
		OFFSET -0.002533 0.108963 -0.026696
		CHANNELS 3 Zrotation Yrotation Xrotation
		JOINT Spine1
		{
			OFFSET 0.005487 0.135180 0.001092
			CHANNELS 3 Zrotation Yrotation Xrotation
			JOINT Spine2
			{
				OFFSET 0.001457 0.052922 0.025425
				CHANNELS 3 Zrotation Yrotation Xrotation
				JOINT Neck
				{
					OFFSET -0.002778 0.213870 -0.042857
					CHANNELS 3 Zrotation Yrotation Xrotation
					JOINT Head
					{
						OFFSET 0.005152 0.064970 0.051349
						CHANNELS 3 Zrotation Yrotation Xrotation
						End Site
						{
							OFFSET 0.000000 0.000000 0.000000
						}
					}
				}
				JOINT LeftShoulder
				{
					OFFSET 0.078845 0.121749 -0.034090
					CHANNELS 3 Zrotation Yrotation Xrotation
					JOINT LeftArm
					{
						OFFSET 0.090977 0.030469 -0.008868
						CHANNELS 3 Zrotation Yrotation Xrotation
						JOINT LeftForeArm
						{
							OFFSET 0.259612 -0.012772 -0.027456
							CHANNELS 3 Zrotation Yrotation Xrotation
							JOINT LeftHand
							{
								OFFSET 0.249234 0.008986 -0.001171
								CHANNELS 3 Zrotation Yrotation Xrotation
								End Site
								{
									OFFSET 0.000000 0.000000 0.000000
								}
							}
						}
					}
				}
				JOINT RightShoulder
				{
					OFFSET -0.081759 0.118833 -0.038615
					CHANNELS 3 Zrotation Yrotation Xrotation
					JOINT RightArm
					{
						OFFSET -0.096012 0.032551 -0.009143
						CHANNELS 3 Zrotation Yrotation Xrotation
						JOINT RightForeArm
						{
							OFFSET -0.253742 -0.013329 -0.021401
							CHANNELS 3 Zrotation Yrotation Xrotation
							JOINT RightHand
							{
								OFFSET -0.255298 0.007772 -0.005559
								CHANNELS 3 Zrotation Yrotation Xrotation
								End Site
								{
									OFFSET 0.000000 0.000000 0.000000
								}
							}
						}
					}
				}
			}
		}
	}
}
MOTION
Frames: 13
Frame Time: 0.050000
0.000000 0.949174 0.000000 0.023099 -20.381336 6.384745 0.730926 -1.002022 -22.399442 -3.330650 0.791703 9.674975 4.905639 10.328459 15.026172 0.000000 0.000000 0.000000 -3.878210 0.682463 -6.106230 5.848557 -0.048461 13.046892 -8.179360 -19.368341 3.962913 0.000000 0.000000 0.000000 0.265881 0.281530 27.158828 -8.094100 2.268280 -22.076694 0.557282 14.849843 28.908561 12.826469 -5.444859 -24.910618 0.000000 0.000000 0.000000 -8.974906 -14.327630 5.482522 -39.817001 -11.497542 -3.109509 -44.739451 -78.869025 41.518364 0.000000 0.000000 0.000000 21.541513 11.631533 6.644463 50.687967 34.782033 7.257220 9.640349 48.137827 7.552977 0.000000 0.000000 0.000000 
-0.000656 0.948975 0.009626 -0.540054 -19.746835 7.105125 1.578214 -0.855702 -21.528090 -4.285195 0.946996 8.448817 4.236220 9.345418 14.542680 0.000000 0.000000 0.000000 -3.415375 0.689932 -6.411045 5.532883 -0.000038 13.385905 -8.487277 -20.094978 4.431418 0.000000 0.000000 0.000000 0.207418 0.233057 27.056246 -7.018710 1.982207 -21.673045 0.020361 14.724686 28.787937 13.483169 -5.741872 -25.211106 0.000000 0.000000 0.000000 -10.588948 -13.871303 5.330915 -38.676017 -11.852304 -2.910652 -52.245673 -79.562567 48.509818 0.000000 0.000000 0.000000 20.960800 11.111043 6.327093 51.186328 35.219396 7.645515 10.428465 50.557348 8.469658 0.000000 0.000000 0.000000 
-0.001103 0.949471 0.018824 -0.151892 -17.705078 6.928060 0.384405 -1.176900 -20.695507 -3.336973 0.666521 8.109498 4.436343 9.855055 13.113644 0.000000 0.000000 0.000000 -4.212163 0.697960 -6.318818 6.393369 -0.201006 13.725164 -9.017589 -21.342589 5.414779 0.000000 0.000000 0.000000 0.956413 -0.143976 26.555276 -7.875352 2.284245 -20.506294 -0.473962 14.072987 27.967436 13.506648 -6.221698 -22.599861 0.000000 0.000000 0.000000 -11.481606 -15.672060 6.097971 -37.023533 -13.308611 -2.357027 -48.732501 -80.950352 46.106945 0.000000 0.000000 0.000000 19.601829 10.648323 6.075141 52.285168 36.395530 8.610313 7.003426 49.724848 6.822665 0.000000 0.000000 0.000000 
-0.001856 0.949935 0.027749 0.004106 -17.976021 7.088630 0.191355 -1.198059 -20.208441 -3.284103 0.644484 7.689992 3.970662 9.079629 13.239728 0.000000 0.000000 0.000000 -4.768562 0.833362 -7.955173 6.592085 -0.094949 17.084666 -9.788292 -22.932700 6.288334 0.000000 0.000000 0.000000 0.646096 -0.018073 27.001836 -8.011213 2.308596 -20.636683 -1.322257 13.895846 28.314677 14.335362 -6.905178 -22.263811 0.000000 0.000000 0.000000 -11.068970 -16.905480 6.695963 -37.677985 -12.355258 -2.693223 -62.357908 -84.434071 61.782842 0.000000 0.000000 0.000000 21.365635 10.414464 6.072246 49.594230 37.240336 8.098523 7.836294 51.659827 7.499815 0.000000 0.000000 0.000000 
-0.003156 0.950675 0.036694 -0.426340 -17.853169 7.216843 0.443576 -1.146591 -19.780757 -2.987608 0.586642 7.955997 4.085962 9.238642 12.575596 0.000000 0.000000 0.000000 -4.940740 0.978421 -9.868244 7.206928 -0.056487 20.780635 -8.581988 -20.882190 5.964850 0.000000 0.000000 0.000000 0.456458 0.012267 26.949020 -8.033918 2.336428 -19.802909 -1.779760 13.209145 27.400219 14.155786 -7.082783 -21.229952 0.000000 0.000000 0.000000 -11.516288 -17.000202 6.856817 -38.695394 -13.344383 -2.421278 -69.888014 -86.078382 70.961102 0.000000 0.000000 0.000000 22.010118 10.911207 6.230532 47.434579 37.972825 7.900183 4.878352 52.365005 6.001861 0.000000 0.000000 0.000000 
-0.005249 0.953163 0.045598 -0.855360 -16.887714 7.200354 1.089859 -1.063396 -19.316123 -3.368735 0.654333 8.059106 3.905874 9.125889 13.200626 0.000000 0.000000 0.000000 -5.642397 1.060597 -11.118866 8.380484 -0.313230 23.080413 -8.042207 -19.908473 5.477898 0.000000 0.000000 0.000000 0.540939 -0.084866 26.952040 -7.793363 2.323437 -19.022540 -2.259727 12.482935 26.877661 13.485648 -6.571162 -21.501299 0.000000 0.000000 0.000000 -12.223911 -18.494544 7.615468 -39.685553 -13.499400 -2.338066 -82.065408 -87.046854 84.057611 0.000000 0.000000 0.000000 20.672814 10.519960 5.833255 46.899835 37.996045 7.857449 2.793021 54.739195 5.284446 0.000000 0.000000 0.000000 
-0.008210 0.955673 0.054766 -1.327852 -16.405952 7.293117 1.260632 -1.031636 -18.494274 -2.679375 0.473011 7.258756 3.781547 9.036603 13.973937 0.000000 0.000000 0.000000 -6.051276 1.205143 -13.169890 8.827172 -0.392961 25.079768 -8.608461 -21.042810 5.028952 0.000000 0.000000 0.000000 0.562465 -0.114027 27.388423 -7.357241 2.144989 -20.674578 -2.714401 11.300677 28.370430 13.388631 -6.592038 -22.219394 0.000000 0.000000 0.000000 -12.546560 -17.222908 7.291965 -40.904745 -13.738628 -2.491552 -110.956039 -86.693097 113.619921 0.000000 0.000000 0.000000 21.063500 10.593741 5.675094 43.881600 38.191721 6.921821 2.807897 55.367002 5.191773 0.000000 0.000000 0.000000 
-0.012188 0.958039 0.064273 -2.072023 -17.180551 7.702514 1.719564 -0.912286 -17.573531 -1.781590 0.277899 6.054980 3.958032 9.159354 13.313702 0.000000 0.000000 0.000000 -5.262941 1.432421 -15.276368 7.084776 0.052903 23.386952 -7.871612 -19.506979 3.756515 0.000000 0.000000 0.000000 0.754494 -0.118896 27.426664 -6.533408 1.870241 -21.605593 -3.378634 11.797818 28.645261 13.779981 -6.742623 -22.723312 0.000000 0.000000 0.000000 -12.673093 -16.142589 6.810414 -42.973970 -13.468494 -2.701929 -121.065986 -86.318312 124.020338 0.000000 0.000000 0.000000 21.622499 10.334588 5.592112 40.556409 37.069140 5.554195 3.091765 55.170801 5.176849 0.000000 0.000000 0.000000 
-0.017028 0.959341 0.073636 -2.118121 -17.162012 8.089978 1.630394 -0.912158 -16.955068 -1.159875 0.150675 5.366393 3.966642 9.137106 13.011517 0.000000 0.000000 0.000000 -4.809423 1.519821 -15.900586 5.534549 0.127938 18.050203 -7.341917 -18.699930 4.802964 0.000000 0.000000 0.000000 1.418141 -0.314192 27.219265 -7.060436 2.037063 -20.276179 -3.996327 11.627239 26.630667 14.941084 -7.399218 -22.717303 0.000000 0.000000 0.000000 -12.991476 -16.716823 7.073546 -45.071192 -12.742068 -2.819462 -120.256293 -86.947182 123.744999 0.000000 0.000000 0.000000 21.781431 9.654449 5.132897 38.434489 35.769407 4.765522 2.602200 54.960408 4.735177 0.000000 0.000000 0.000000 
-0.022517 0.960106 0.082901 -1.754390 -15.904117 8.002955 0.868746 -1.033698 -16.137356 -0.309992 -0.019629 5.263281 3.370051 8.224793 12.007970 0.000000 0.000000 0.000000 -4.241408 1.423746 -14.898684 3.889616 0.185925 13.937250 -7.393451 -18.904165 5.651748 0.000000 0.000000 0.000000 2.005295 -0.557416 27.535494 -7.055731 2.039045 -21.038308 -3.939331 10.782224 27.130360 16.449128 -8.345160 -23.186512 0.000000 0.000000 0.000000 -14.688293 -16.421704 7.154699 -45.887120 -12.124204 -3.149925 -91.566655 -86.613189 94.416229 0.000000 0.000000 0.000000 22.835371 9.940255 5.327024 35.098310 34.620406 3.600269 0.287248 52.863823 3.187513 0.000000 0.000000 0.000000 
-0.027687 0.960232 0.092892 -1.672928 -15.200097 8.130045 0.706356 -1.051685 -15.561741 -0.223423 -0.041553 5.310765 3.179480 7.861309 10.653114 0.000000 0.000000 0.000000 -3.728829 1.348799 -14.020181 3.811828 -0.011202 9.709908 -6.318917 -17.096768 6.920861 0.000000 0.000000 0.000000 2.510023 -0.761126 26.821635 -6.681470 1.961025 -20.717726 -3.292057 11.121310 26.683274 16.870999 -8.382275 -23.616299 0.000000 0.000000 0.000000 -15.548104 -15.648957 6.666106 -47.436568 -10.105216 -3.894156 -65.412132 -84.496232 66.221077 0.000000 0.000000 0.000000 23.103329 9.529632 5.306263 35.330377 33.277014 3.258486 -0.552417 49.285346 2.570987 0.000000 0.000000 0.000000 
-0.031622 0.959625 0.104459 -1.228848 -14.609101 8.263560 0.327042 -1.079887 -14.810301 -0.639264 0.030212 5.191314 3.825872 9.039663 10.693806 0.000000 0.000000 0.000000 -3.868071 1.253642 -13.166908 3.259890 -0.046664 6.977588 -5.709877 -16.439776 9.109432 0.000000 0.000000 0.000000 3.475798 -1.059861 25.251315 -6.481983 1.923269 -20.492727 -2.293153 11.275183 27.343535 16.602902 -8.266722 -23.437915 0.000000 0.000000 0.000000 -16.637460 -14.217384 5.956111 -47.917986 -7.089972 -5.110557 -57.533941 -82.233334 56.629676 0.000000 0.000000 0.000000 22.974232 10.744538 6.122197 36.360168 32.298586 3.128417 -1.763279 44.521973 1.755781 0.000000 0.000000 0.000000 
-0.034046 0.958722 0.117617 -0.701287 -14.719624 8.028690 -0.142058 -1.093301 -13.957584 -0.686169 0.038580 5.879956 4.010662 9.268106 9.471480 0.000000 0.000000 0.000000 -4.374254 1.146359 -12.167608 2.875480 -0.020328 6.392627 -6.036752 -17.070859 9.486623 0.000000 0.000000 0.000000 4.457584 -1.283296 24.684399 -6.532467 1.934885 -20.947031 -0.690957 12.051761 27.709390 16.252097 -7.962294 -23.448996 0.000000 0.000000 0.000000 -16.605868 -12.310949 4.815069 -46.990826 -1.950402 -6.880474 -77.754279 -79.776000 72.998629 0.000000 0.000000 0.000000 22.861941 10.268822 6.001618 37.849903 31.121197 3.016663 -0.642283 39.533019 1.884439 0.000000 0.000000 0.000000 
